<?xml version="1.0" encoding="UTF-8" standalone="no"?>
<!DOCTYPE svg PUBLIC "-//W3C//DTD SVG 1.1//EN" "http://www.w3.org/Graphics/SVG/1.1/DTD/svg11.dtd">

<!-- Created with Vectornator (http://vectornator.io/) -->
<svg height="100%" stroke-miterlimit="10" style="fill-rule:nonzero;clip-rule:evenodd;stroke-linecap:round;stroke-linejoin:round;" version="1.1" viewBox="0 0 465.996 382.78" width="100%" xml:space="preserve" xmlns="http://www.w3.org/2000/svg" xmlns:vectornator="http://vectornator.io" xmlns:xlink="http://www.w3.org/1999/xlink">
<metadata>
<vectornator:setting key="IsTimeLapseWatermarkDisabled" value="false"/>
<vectornator:setting key="UndoHistoryDisabled" value="true"/>
<vectornator:setting key="VNDimensionsVisible" value="true"/>
<vectornator:setting key="VNSnapToGuides" value="true"/>
<vectornator:setting key="WDCMYKEnabledKey" value="false"/>
<vectornator:setting key="WDDisplayWhiteBackground" value="false"/>
<vectornator:setting key="WDDynamicGuides" value="false"/>
<vectornator:setting key="WDGuidesVisible" value="true"/>
<vectornator:setting key="WDIsolateActiveLayer" value="false"/>
<vectornator:setting key="WDOutlineMode" value="false"/>
<vectornator:setting key="WDRulersVisible" value="true"/>
<vectornator:setting key="WDSnapToEdges" value="false"/>
<vectornator:setting key="WDSnapToGrid" value="false"/>
<vectornator:setting key="WDSnapToPoints" value="false"/>
<vectornator:setting key="WDUnits" value="Millimeters"/>
</metadata>
<defs>
<clipPath id="TextBounds">
<rect height="147.908" width="155.839" x="231.534" y="39.2112"/>
</clipPath>
<clipPath id="TextBounds_2">
<rect height="102.436" width="99.5264" x="259.658" y="214.173"/>
</clipPath>
<clipPath id="TextBounds_3">
<rect height="102.436" width="100.148" x="259.556" y="214.581"/>
</clipPath>
<clipPath id="TextBounds_4">
<rect height="156.137" width="167.476" x="231.963" y="39.7241"/>
</clipPath>
<clipPath id="TextBounds_5">
<rect height="267.683" width="190.453" x="55.869" y="122.257"/>
</clipPath>
</defs>
<g id="Layer-1" vectornator:layerName="Layer 1">
<path clip-path="url(#TextBounds)" d="M309.142 181.907C317.987 181.907 326.313 180.214 334.12 176.828C341.928 173.443 348.815 168.767 354.782 162.8C360.749 156.833 365.425 149.946 368.81 142.138C372.196 134.331 373.888 126.005 373.888 117.16C373.888 108.316 372.196 99.99 368.81 92.1824C365.425 84.3748 360.749 77.4876 354.782 71.5208C348.815 65.554 341.917 60.8779 334.089 57.4924C326.26 54.107 317.923 52.4143 309.079 52.4143C300.234 52.4143 291.908 54.107 284.101 57.4924C276.293 60.8779 269.417 65.554 263.471 71.5208C257.525 77.4876 252.86 84.3748 249.474 92.1824C246.089 99.99 244.396 108.316 244.396 117.16C244.396 126.005 246.089 134.331 249.474 142.138C252.86 149.946 257.536 156.833 263.503 162.8C269.469 168.767 276.357 173.443 284.164 176.828C291.972 180.214 300.298 181.907 309.142 181.907ZM309.142 171.115C301.652 171.115 294.649 169.719 288.132 166.926C281.615 164.133 275.891 160.272 270.961 155.342C266.031 150.412 262.18 144.688 259.408 138.171C256.637 131.654 255.251 124.651 255.251 117.16C255.251 109.67 256.637 102.667 259.408 96.1497C262.18 89.6327 266.021 83.8987 270.929 78.9475C275.838 73.9963 281.551 70.1349 288.068 67.363C294.585 64.5912 301.589 63.2053 309.079 63.2053C316.569 63.2053 323.573 64.5912 330.09 67.363C336.607 70.1349 342.341 73.9963 347.292 78.9475C352.243 83.8987 356.115 89.6327 358.908 96.1497C361.701 102.667 363.097 109.67 363.097 117.16C363.097 124.651 361.711 131.654 358.94 138.171C356.168 144.688 352.317 150.412 347.387 155.342C342.457 160.272 336.723 164.133 330.185 166.926C323.647 169.719 316.633 171.115 309.142 171.115ZM288.195 147.058C289.338 147.058 290.311 146.751 291.115 146.137C291.919 145.524 292.575 144.476 293.083 142.995L297.717 129.475L320.378 129.475L325.075 142.995C325.964 145.704 327.593 147.058 329.963 147.058C331.359 147.058 332.481 146.645 333.327 145.82C334.173 144.995 334.596 143.948 334.596 142.678C334.596 141.789 334.385 140.689 333.962 139.377L316.125 91.4524C314.898 88.1093 312.528 86.4378 309.015 86.4378C307.28 86.4378 305.831 86.8609 304.667 87.7073C303.503 88.5536 302.604 89.802 301.969 91.4524L284.196 139.377C283.731 140.689 283.498 141.789 283.498 142.678C283.498 143.99 283.921 145.048 284.767 145.852C285.614 146.656 286.756 147.058 288.195 147.058ZM300.256 121.858L308.698 97.2922L309.396 97.2922L317.839 121.858L300.256 121.858Z" fill="#000000" fill-rule="evenodd" opacity="1" stroke="none"/>
<path clip-path="url(#TextBounds_2)" d="M310.921 307.474C316.704 307.474 322.148 306.367 327.253 304.154C332.358 301.94 336.861 298.883 340.763 294.981C344.664 291.08 347.722 286.577 349.935 281.472C352.149 276.367 353.255 270.923 353.255 265.14C353.255 259.357 352.149 253.913 349.935 248.808C347.722 243.703 344.664 239.2 340.763 235.299C336.861 231.397 332.351 228.34 327.232 226.126C322.114 223.913 316.663 222.806 310.88 222.806C305.097 222.806 299.653 223.913 294.548 226.126C289.443 228.34 284.947 231.397 281.059 235.299C277.172 239.2 274.121 243.703 271.908 248.808C269.694 253.913 268.587 259.357 268.587 265.14C268.587 270.923 269.694 276.367 271.908 281.472C274.121 286.577 277.179 291.08 281.08 294.981C284.981 298.883 289.485 301.94 294.59 304.154C299.695 306.367 305.139 307.474 310.921 307.474ZM310.921 300.418C306.024 300.418 301.445 299.505 297.184 297.679C292.923 295.853 289.18 293.328 285.957 290.105C282.733 286.881 280.215 283.139 278.403 278.878C276.591 274.617 275.685 270.038 275.685 265.14C275.685 260.243 276.591 255.663 278.403 251.402C280.215 247.141 282.726 243.392 285.936 240.155C289.146 236.917 292.881 234.393 297.142 232.58C301.403 230.768 305.982 229.862 310.88 229.862C315.777 229.862 320.357 230.768 324.618 232.58C328.879 234.393 332.628 236.917 335.865 240.155C339.103 243.392 341.634 247.141 343.46 251.402C345.287 255.663 346.2 260.243 346.2 265.14C346.2 270.038 345.294 274.617 343.481 278.878C341.669 283.139 339.151 286.881 335.928 290.105C332.704 293.328 328.955 295.853 324.68 297.679C320.405 299.505 315.819 300.418 310.921 300.418ZM298.927 283.692L323.248 283.692C324.05 283.692 324.715 283.45 325.24 282.966C325.766 282.482 326.029 281.825 326.029 280.995C326.029 280.137 325.766 279.466 325.24 278.982C324.715 278.497 324.05 278.255 323.248 278.255L304.613 278.255L304.613 277.923L323.663 251.485C324.078 250.932 324.348 250.475 324.472 250.116C324.597 249.756 324.659 249.327 324.659 248.829C324.659 247.971 324.376 247.266 323.808 246.712C323.241 246.159 322.501 245.882 321.588 245.882L298.553 245.882C297.779 245.882 297.128 246.124 296.603 246.609C296.077 247.093 295.814 247.75 295.814 248.58C295.814 249.438 296.077 250.109 296.603 250.593C297.128 251.077 297.779 251.319 298.553 251.319L316.151 251.319L316.151 251.651L297.059 278.089C296.616 278.726 296.319 279.238 296.167 279.625C296.015 280.012 295.939 280.427 295.939 280.87C295.939 281.7 296.215 282.378 296.769 282.904C297.322 283.43 298.041 283.692 298.927 283.692Z" fill="#000000" fill-rule="evenodd" opacity="1" stroke="none"/>
</g>
<g id="Layer-2" vectornator:layerName="Layer 2" visibility="hidden">
<path clip-path="url(#TextBounds_3)" d="M310.82 307.881C316.602 307.881 322.046 306.775 327.151 304.561C332.256 302.348 336.76 299.29 340.661 295.389C344.562 291.487 347.62 286.984 349.833 281.879C352.047 276.774 353.154 271.33 353.154 265.548C353.154 259.765 352.047 254.321 349.833 249.216C347.62 244.111 344.562 239.608 340.661 235.706C336.76 231.805 332.249 228.747 327.131 226.534C322.012 224.32 316.561 223.214 310.778 223.214C304.995 223.214 299.551 224.32 294.446 226.534C289.341 228.747 284.845 231.805 280.958 235.706C277.07 239.608 274.019 244.111 271.806 249.216C269.592 254.321 268.486 259.765 268.486 265.548C268.486 271.33 269.592 276.774 271.806 281.879C274.019 286.984 277.077 291.487 280.978 295.389C284.88 299.29 289.383 302.348 294.488 304.561C299.593 306.775 305.037 307.881 310.82 307.881ZM310.82 300.826C305.922 300.826 301.343 299.913 297.082 298.087C292.821 296.26 289.078 293.736 285.855 290.512C282.631 287.289 280.114 283.546 278.301 279.285C276.489 275.024 275.583 270.445 275.583 265.548C275.583 260.65 276.489 256.071 278.301 251.81C280.114 247.549 282.625 243.799 285.834 240.562C289.044 237.325 292.779 234.8 297.04 232.988C301.301 231.175 305.881 230.269 310.778 230.269C315.676 230.269 320.255 231.175 324.516 232.988C328.777 234.8 332.526 237.325 335.763 240.562C339.001 243.799 341.532 247.549 343.359 251.81C345.185 256.071 346.098 260.65 346.098 265.548C346.098 270.445 345.192 275.024 343.379 279.285C341.567 283.546 339.049 287.289 335.826 290.512C332.602 293.736 328.853 296.26 324.578 298.087C320.303 299.913 315.717 300.826 310.82 300.826ZM297.123 285.096C297.87 285.096 298.507 284.895 299.032 284.494C299.558 284.093 299.987 283.408 300.319 282.44L303.349 273.599L318.166 273.599L321.237 282.44C321.818 284.21 322.883 285.096 324.433 285.096C325.346 285.096 326.079 284.826 326.633 284.287C327.186 283.747 327.463 283.062 327.463 282.232C327.463 281.651 327.324 280.932 327.048 280.074L315.385 248.738C314.583 246.553 313.033 245.46 310.737 245.46C309.602 245.46 308.654 245.736 307.894 246.29C307.133 246.843 306.545 247.659 306.13 248.738L294.509 280.074C294.204 280.932 294.052 281.651 294.052 282.232C294.052 283.09 294.329 283.782 294.882 284.307C295.435 284.833 296.183 285.096 297.123 285.096ZM305.009 268.619L310.529 252.557L310.986 252.557L316.506 268.619L305.009 268.619Z" fill="#000000" fill-rule="evenodd" opacity="1" stroke="none"/>
<path clip-path="url(#TextBounds_4)" d="M309.571 182.419C318.416 182.419 326.742 180.727 334.549 177.341C342.357 173.956 349.244 169.28 355.211 163.313C361.178 157.346 365.854 150.459 369.239 142.651C372.625 134.844 374.317 126.518 374.317 117.673C374.317 108.829 372.625 100.503 369.239 92.6953C365.854 84.8877 361.178 78.0005 355.211 72.0337C349.244 66.0669 342.346 61.3908 334.518 58.0054C326.689 54.62 318.352 52.9273 309.508 52.9273C300.663 52.9273 292.337 54.62 284.53 58.0054C276.722 61.3908 269.846 66.0669 263.9 72.0337C257.954 78.0005 253.289 84.8877 249.903 92.6953C246.518 100.503 244.825 108.829 244.825 117.673C244.825 126.518 246.518 134.844 249.903 142.651C253.289 150.459 257.965 157.346 263.932 163.313C269.899 169.28 276.786 173.956 284.593 177.341C292.401 180.727 300.727 182.419 309.571 182.419ZM309.571 171.628C302.081 171.628 295.078 170.232 288.561 167.439C282.044 164.646 276.32 160.785 271.39 155.855C266.46 150.924 262.609 145.201 259.837 138.684C257.066 132.167 255.68 125.164 255.68 117.673C255.68 110.183 257.066 103.18 259.837 96.6626C262.609 90.1457 266.45 84.4116 271.358 79.4605C276.267 74.5093 281.98 70.6478 288.497 67.876C295.014 65.1042 302.018 63.7183 309.508 63.7183C316.998 63.7183 324.002 65.1042 330.519 67.876C337.036 70.6478 342.77 74.5093 347.721 79.4605C352.672 84.4116 356.544 90.1457 359.337 96.6626C362.13 103.18 363.526 110.183 363.526 117.673C363.526 125.164 362.141 132.167 359.369 138.684C356.597 145.201 352.746 150.924 347.816 155.855C342.886 160.785 337.152 164.646 330.614 167.439C324.076 170.232 317.062 171.628 309.571 171.628ZM291.227 146.047L328.424 146.047C329.651 146.047 330.667 145.677 331.471 144.937C332.275 144.196 332.677 143.191 332.677 141.921C332.677 140.61 332.275 139.583 331.471 138.843C330.667 138.102 329.651 137.732 328.424 137.732L299.923 137.732L299.923 137.224L329.059 96.7896C329.693 95.9432 330.106 95.245 330.296 94.6948C330.487 94.1447 330.582 93.4888 330.582 92.7271C330.582 91.4152 330.148 90.3361 329.281 89.4898C328.413 88.6434 327.281 88.2202 325.885 88.2202L290.655 88.2202C289.47 88.2202 288.476 88.5905 287.672 89.3311C286.868 90.0716 286.466 91.0767 286.466 92.3462C286.466 93.6581 286.868 94.6843 287.672 95.4248C288.476 96.1654 289.47 96.5357 290.655 96.5357L317.569 96.5357L317.569 97.0435L288.37 137.478C287.693 138.451 287.238 139.234 287.005 139.827C286.773 140.419 286.656 141.054 286.656 141.731C286.656 143.001 287.08 144.037 287.926 144.841C288.772 145.645 289.872 146.047 291.227 146.047Z" fill="#000000" fill-rule="evenodd" opacity="1" stroke="none"/>
</g>
<g id="Layer-1-copy-copy" vectornator:layerName="Layer 1 copy copy">
<path clip-path="url(#TextBounds_5)" d="M153.327 149.159C150.864 149.159 148.843 149.933 147.265 151.48C145.686 153.027 144.896 155.032 144.896 157.495L144.896 282.25L145.844 310.479L151.148 308.584L117.236 271.357L95.6385 250.138C94.8807 249.38 93.9808 248.812 92.9388 248.433C91.8968 248.054 90.8075 247.865 89.6708 247.865C87.3342 247.865 85.3923 248.654 83.8451 250.233C82.2979 251.811 81.5243 253.769 81.5243 256.106C81.5243 258.379 82.4084 260.432 84.1766 262.263L146.98 325.256C147.928 326.203 148.938 326.914 150.012 327.387C151.085 327.861 152.19 328.098 153.327 328.098C154.527 328.098 155.664 327.861 156.737 327.387C157.811 326.914 158.79 326.203 159.674 325.256L222.572 262.263C224.277 260.432 225.13 258.379 225.13 256.106C225.13 253.769 224.356 251.811 222.809 250.233C221.262 248.654 219.32 247.865 216.983 247.865C215.847 247.865 214.757 248.054 213.715 248.433C212.673 248.812 211.773 249.38 211.015 250.138L189.418 271.357L155.411 308.584L160.81 310.479L161.758 282.25L161.758 157.495C161.758 155.032 160.968 153.027 159.39 151.48C157.811 149.933 155.79 149.159 153.327 149.159Z" fill="#000000" fill-rule="evenodd" opacity="1" stroke="none"/>
<path d="M153.178 40.2799L153.178 40.2799C157.94 40.2799 161.801 46.0355 161.801 53.1355L161.801 312.151C161.801 319.251 157.94 325.006 153.178 325.006L153.178 325.006C148.415 325.006 144.554 319.251 144.554 312.151L144.554 53.1355C144.554 46.0355 148.415 40.2799 153.178 40.2799Z" fill="#000000" fill-rule="evenodd" opacity="1" stroke="none"/>
</g>
</svg>
